<svg width="2081" height="390" viewBox="0 0 2081 390" fill="none" xmlns="http://www.w3.org/2000/svg">
<g clip-path="url(#clip0_35_64)">
<circle cx="195" cy="195" r="195" fill="#112041"/>
<path d="M390 62.0444L-2.83368e-06 126.872L-5.49631e-06 187.785L264.545 227.559L264.545 228.275L-8.70714e-06 261.241L-1.15264e-05 325.737L390 260.524L390 196.027L146.727 157.687L146.727 156.97L390 118.63L390 62.0444Z" fill="#FC684D"/>
</g>
<path d="M1985.82 329.922C1925.74 329.922 1889.55 289.026 1889.55 231.12C1889.55 176.832 1923.57 132.317 1985.82 132.317C2048.79 132.317 2080.64 169.594 2080.64 237.996V246.682H1947.46C1947.82 272.378 1965.55 286.492 1987.27 286.492C2007.89 286.492 2016.58 277.083 2020.2 267.673H2079.19C2068.7 305.312 2037.93 329.922 1985.82 329.922ZM1985.82 174.299C1963.74 174.299 1949.26 186.966 1947.82 210.852H2022.37C2022.37 186.966 2008.26 174.299 1985.82 174.299Z" fill="#112041"/>
<path d="M1758.7 138.47H1793.91V86.7158H1851.81V138.47H1884.02V181.899H1851.81V262.244C1851.81 282.15 1859.41 283.959 1870.63 283.959C1876.06 283.959 1879.32 283.597 1886.19 282.512V323.408C1873.89 326.303 1863.39 327.389 1851.81 327.389C1811.28 327.389 1793.91 308.931 1793.91 263.692V181.899H1758.7L1758.7 138.47Z" fill="#112041"/>
<path d="M1692.12 65H1750.03V116.392H1692.12V65ZM1692.12 138.469H1750.03V323.769H1692.12V138.469Z" fill="#112041"/>
<path d="M1554.19 245.235C1554.19 273.102 1563.97 282.512 1583.15 282.512C1605.22 282.512 1617.89 271.293 1617.89 245.597V138.47H1675.8V323.77H1617.89V296.989H1617.17C1607.39 313.999 1589.3 329.561 1556.36 329.561C1520.54 329.561 1496.29 306.037 1496.29 263.693V138.47H1554.19V245.235Z" fill="#112041"/>
<path d="M1412.57 206.871C1449.12 215.195 1485.31 226.415 1485.31 269.482C1485.31 308.207 1456 329.56 1402.43 329.56C1337.65 329.56 1312.32 298.436 1310.87 262.244H1365.16C1366.96 280.702 1379.27 289.75 1401.35 289.75C1418.36 289.75 1425.96 284.321 1425.96 273.825C1425.96 257.177 1407.5 255.368 1380.72 249.215C1348.15 241.615 1314.49 228.586 1314.49 190.947C1314.49 156.203 1343.44 132.679 1395.56 132.679C1454.91 132.679 1478.07 162.718 1479.88 195.29H1425.6C1423.79 180.451 1415.82 172.489 1396.64 172.489C1380.72 172.489 1373.84 178.28 1373.84 187.328C1373.84 199.633 1384.7 200.719 1412.57 206.871Z" fill="#112041"/>
<path d="M1243.63 301.693V290.836H1242.91C1235.67 300.607 1219.38 315.084 1192.24 315.084C1144.83 315.084 1114.43 277.445 1114.43 223.881C1114.43 170.318 1144.83 132.679 1192.24 132.679C1219.38 132.679 1235.67 147.156 1242.91 156.927H1243.63V138.47H1301.54V301.693C1301.54 367.923 1265.71 390 1208.89 390C1151.34 390 1124.56 359.599 1118.04 329.922H1176.68C1180.29 340.056 1188.62 348.38 1208.89 348.38C1234.94 348.38 1243.63 334.627 1243.63 301.693ZM1208.16 176.109C1184.64 176.109 1173.78 193.842 1173.78 223.881C1173.78 253.92 1184.64 271.654 1208.16 271.654C1231.69 271.654 1242.54 253.92 1242.54 223.881C1242.54 193.842 1231.69 176.109 1208.16 176.109Z" fill="#112041"/>
<path d="M925.303 323.769V138.469H983.209V165.25H983.933C993.705 148.24 1011.8 132.678 1044.73 132.678C1080.56 132.678 1104.81 156.202 1104.81 198.546V323.769H1046.91V217.004C1046.91 189.137 1037.13 179.727 1017.95 179.727C995.876 179.727 983.209 190.946 983.209 216.642V323.769H925.303Z" fill="#112041"/>
<path d="M834.824 65H892.731V116.392H834.824V65ZM834.824 138.469H892.731V281.14H928.444V323.769H834.824V138.469Z" fill="#112041"/>
<path d="M487.5 65H552.645L585.941 240.529H586.665L626.837 65H688.362L728.535 240.529H729.259L762.555 65H827.7L761.831 323.769H696.687L657.962 162.355H657.238L618.513 323.769H553.368L487.5 65Z" fill="#112041"/>
<defs>
<clipPath id="clip0_35_64">
<rect width="390" height="390" rx="195" fill="white"/>
</clipPath>
</defs>
</svg>
