<?xml version="1.0" encoding="UTF-8"?>
<svg id="Layer_1" data-name="Layer 1" xmlns="http://www.w3.org/2000/svg" viewBox="0 0 354.51 203.25">
  <g>
    <path d="M223.35.64c-4.55-1.01-9.03-.83-13.44.55-4.41,1.38-8.04,3.84-10.89,7.37-2.07,2.53-3.73,5.63-5,9.3-1.26,3.68-2.09,6.8-2.48,9.37-.39,2.57-.79,6.11-1.21,10.61-.05-3.26-.16-6.12-.34-8.58-.18-2.46-.52-5.09-1-7.89-.48-2.8-1.17-5.24-2.07-7.3-.9-2.07-2.02-4.04-3.38-5.93-1.36-1.88-3.09-3.46-5.2-4.72-2.11-1.26-4.55-2.19-7.31-2.79-4.96-1.06-9.79-.71-14.47,1.03-4.69,1.75-8.46,4.69-11.3,8.82-1.56,2.25-2.86,4.64-3.89,7.17-1.03,2.53-1.83,5.31-2.38,8.34-.55,3.03-.95,5.64-1.21,7.82-.25,2.18-.49,5.02-.72,8.51l-3.86-40.73h-35.98v96.28h40.8v-53.76c0-5.15,1.26-8.41,3.79-9.79.96-.6,2.12-.84,3.48-.72,1.35.12,2.42.59,3.2,1.41,1.2,1.24,1.79,3.77,1.79,7.58v55.27h39.97v-53.76c0-5.15,1.26-8.41,3.79-9.79.96-.6,2.14-.84,3.52-.72,1.38.12,2.46.59,3.24,1.41.32.32.6.69.83,1.1.6,1.15.9,3.31.9,6.48v55.27h40.94v-61.34c-.09-21.04-6.8-33.01-20.12-35.91Z"/>
    <path d="M80.38,56.92c-4.31,2.31-9,3.47-14.08,3.47-8.03,0-14.24-2.51-18.63-7.54,1.62.35,3.21.52,4.77.52,6.36,0,12.19-.98,17.51-2.95,5.31-1.96,9.72-5.08,13.22-9.36,3.5-4.28,5.24-9.39,5.24-15.34,0-4.1-1.1-7.81-3.29-11.14-2.2-3.32-5.11-6.01-8.75-8.06-3.64-2.05-7.64-3.62-12-4.72-4.36-1.1-8.83-1.65-13.39-1.65-9.53,0-18.17,2.05-25.91,6.15-7.74,4.1-13.85,9.95-18.33,17.55C2.24,31.45,0,40.13,0,49.9c0,7.69,1.37,14.65,4.12,20.89,2.74,6.24,6.47,11.38,11.18,15.43,4.71,4.05,10.17,7.17,16.38,9.36,6.21,2.2,12.87,3.29,19.98,3.29,8.49,0,15.64-.94,21.45-2.82,5.81-1.88,11.34-4.72,16.6-8.54l.09-38.92c-1.97,3.24-5.1,6.01-9.4,8.32ZM40.47,28.14c0-4.62.42-8.85,1.26-12.7.84-3.84,1.81-6.7,2.9-8.58,1.1-1.88,2.08-2.82,2.95-2.82.69,0,1.36.45,1.99,1.34.63.9,1.23,2.2,1.78,3.9.55,1.7,1,3.99,1.34,6.85.35,2.86.52,6.05.52,9.58,0,10.69-2.11,19.44-6.33,26.26-4.28-5.49-6.41-13.43-6.41-23.83Z"/>
    <path d="M327.91,5.57c-7.35-3.58-16.01-5.38-25.98-5.38-16.72,0-29.98,5.06-39.77,15.16-8.68,9.05-13.03,20.7-13.03,34.94,0,4.5.78,9.22,2.34,14.16,1.56,4.94,3.58,9.18,6.06,12.72,4.5,6.85,10.46,12.3,17.89,16.37,7.42,4.07,16.21,6.1,26.36,6.1,15.62,0,28.44-5.01,38.46-15.02,4.46-4.46,7.95-9.81,10.48-16.06,2.53-6.25,3.79-12.34,3.79-18.26,0-12.45-2.94-22.49-8.82-30.12-4.5-6.16-10.43-11.03-17.78-14.61ZM301.82,63.51c-7.51,0-13.59-6.09-13.59-13.59s6.09-13.59,13.59-13.59,13.59,6.09,13.59,13.59-6.09,13.59-13.59,13.59Z"/>
  </g>
  <path d="M13.33,125.24v21.3h42.8c-4.27,0-8.46.29-12.54.86-4.09.57-8.14,1.55-12.16,2.93-4.02,1.38-7.52,3.09-10.51,5.14-2.99,2.05-5.4,4.65-7.24,7.82-1.84,3.17-2.76,6.71-2.76,10.61,0,8.78,3.68,15.86,11.03,21.26,7.35,5.4,17.02,8.1,29.02,8.1,4.64,0,9.04-.39,13.2-1.17,4.16-.78,7.62-1.72,10.37-2.83,2.76-1.1,5.27-2.34,7.55-3.72,2.27-1.38,3.95-2.55,5.03-3.52,1.08-.96,1.92-1.84,2.51-2.62v-37.01c-7.49,6.66-15.55,9.99-24.19,9.99-4.96,0-8.95-.73-11.96-2.21-3.01-1.47-4.51-3.77-4.51-6.89,0-4.5,3.61-6.75,10.82-6.75h29.84v-41.14H13.33v19.85Z"/>
  <rect x="97.23" y="105.39" width="40.87" height="96.28"/>
  <path d="M348.35,128.1c-.53-3.51-1.46-6.98-2.79-10.41-1.33-3.42-3.33-6.27-6-8.55-2.67-2.27-5.97-3.85-9.92-4.72-4.96-1.1-9.86-.77-14.68,1-4.83,1.77-8.66,4.72-11.51,8.86-1.56,2.25-2.86,4.64-3.89,7.17-1.03,2.53-1.83,5.32-2.38,8.37-.55,3.06-.94,5.64-1.17,7.75-.23,2.11-.46,4.96-.69,8.54l-3.93-40.73h-35.98v96.28h40.87v-53.76c0-5.19,1.24-8.45,3.72-9.79.96-.6,2.14-.84,3.52-.72,1.38.12,2.46.59,3.24,1.41.32.32.6.69.83,1.1.6,1.15.9,3.31.9,6.48v55.27h40.66v-61.68c0-4.41-.27-8.37-.79-11.89Z"/>
  <path d="M223,108.66c-7.35-3.58-16.01-5.38-25.98-5.38-16.72,0-29.98,5.06-39.77,15.16-8.68,9.05-13.03,20.7-13.03,34.94,0,4.5.78,9.22,2.34,14.16,1.56,4.94,3.58,9.18,6.06,12.72,4.5,6.85,10.46,12.3,17.89,16.37,7.42,4.07,16.21,6.1,26.36,6.1,15.62,0,28.44-5.01,38.46-15.02,4.46-4.46,7.95-9.81,10.48-16.06,2.53-6.25,3.79-12.34,3.79-18.26,0-12.45-2.94-22.49-8.82-30.12-4.5-6.16-10.43-11.03-17.78-14.61ZM196.91,166.61c-7.51,0-13.59-6.09-13.59-13.59s6.09-13.59,13.59-13.59,13.59,6.09,13.59,13.59-6.09,13.59-13.59,13.59Z"/>
</svg>