<svg viewBox="0 0 343 50" fill="currentColor" xmlns="http://www.w3.org/2000/svg" aria-hidden="true"><path d="M110.036.567a12.47 12.47 0 0 0-6.621.276q-3.26 1.032-5.365 3.681-1.529 1.893-2.461 4.646-.934 2.754-1.223 4.68-.288 1.927-.594 5.3a74 74 0 0 0-.17-4.285 42 42 0 0 0-.492-3.94q-.357-2.098-1.02-3.648a16 16 0 0 0-1.662-2.96 8.5 8.5 0 0 0-2.564-2.356q-1.561-.946-3.6-1.394-3.666-.791-7.13.516-3.463 1.308-5.568 4.405a18.8 18.8 0 0 0-1.919 3.579q-.764 1.893-1.17 4.164a63 63 0 0 0-.595 3.905 90 90 0 0 0-.356 4.25L65.624 1.05H47.9v48.074H68V22.28q0-3.853 1.868-4.887.713-.446 1.715-.36 1.001.085 1.579.705.882.93.883 3.785v27.599h19.693V22.28q0-3.853 1.867-4.887.714-.446 1.732-.36 1.019.085 1.596.705.237.24.407.55.442.86.442 3.235v27.599h20.168V18.496q-.068-15.761-9.914-17.929m67.521 10.393v10.633h21.085q-3.157 0-6.18.43a32 32 0 0 0-5.992 1.462q-2.972 1.034-5.178 2.564a11.86 11.86 0 0 0-3.566 3.906q-1.358 2.375-1.358 5.3 0 6.572 5.433 10.615t14.295 4.044q3.429 0 6.501-.585 3.074-.585 5.111-1.411a25 25 0 0 0 3.717-1.858q1.681-1.034 2.479-1.755.798-.723 1.239-1.308v-18.48q-5.534 4.99-11.917 4.99-3.668 0-5.891-1.1-2.224-1.102-2.224-3.442 0-3.372 5.331-3.372h14.701V1.049h-37.587zm61.524-9.911h-20.135v48.074h20.135zm103.528 11.338a24.5 24.5 0 0 0-1.375-5.195q-.985-2.564-2.954-4.268T333.391.567q-3.667-.825-7.232.499-3.566 1.326-5.671 4.422a18.7 18.7 0 0 0-1.918 3.579q-.764 1.893-1.172 4.18a58 58 0 0 0-.577 3.873 103 103 0 0 0-.339 4.266L314.546 1.05h-17.724v48.074h20.135V22.28q0-3.888 1.834-4.887.712-.446 1.732-.36 1.017.086 1.595.705.237.24.408.55.44.86.441 3.235v27.599H343v-30.8q0-3.302-.391-5.936M39.603 28.666q-3.182 1.731-6.938 1.731-5.936 0-9.18-3.765 1.195.26 2.348.26 4.696 0 8.625-1.472 3.928-1.47 6.511-4.673 2.584-3.202 2.584-7.66 0-3.072-1.623-5.56-1.623-2.49-4.312-4.026t-5.914-2.358A26.6 26.6 0 0 0 25.107.32q-7.046 0-12.767 3.072-5.722 3.074-9.03 8.764Q0 17.847 0 25.16q0 5.755 2.028 10.43 2.028 4.673 5.508 7.702t8.07 4.673 9.842 1.645q6.278 0 10.568-1.406 4.292-1.406 8.177-4.263l.043-19.43q-1.452 2.423-4.633 4.154M19.94 14.299q0-3.461.62-6.34.618-2.877 1.43-4.284.811-1.406 1.451-1.406.513 0 .983.67.468.671.875 1.947.404 1.277.662 3.42.256 2.141.256 4.781 0 8.007-3.117 13.112-3.16-4.111-3.16-11.9M161.55 3.028Q156.117.343 148.749.343q-12.359 0-19.591 7.571-6.418 6.78-6.418 17.447 0 3.373 1.155 7.072 1.154 3.7 2.988 6.349 3.327 5.127 8.811 8.173Q141.177 50 148.682 50q11.544 0 18.946-7.502 3.293-3.337 5.161-8.018 1.867-4.68 1.867-9.12 0-9.324-4.346-15.037-3.329-4.611-8.76-7.295m-12.852 28.93c-3.698 0-6.697-3.038-6.697-6.786 0-3.749 2.999-6.788 6.697-6.788s6.697 3.039 6.697 6.788-2.998 6.787-6.697 6.787M280.85 2.685Q275.416 0 268.049 0q-12.36 0-19.592 7.571-6.417 6.78-6.417 17.447 0 3.373 1.155 7.072 1.154 3.699 2.987 6.348 3.327 5.129 8.812 8.174 5.482 3.045 12.987 3.045 11.544 0 18.946-7.502 3.294-3.338 5.161-8.018 1.868-4.68 1.868-9.12 0-9.324-4.346-15.037-3.329-4.611-8.76-7.295m-12.852 28.93c-3.699 0-6.697-3.038-6.697-6.787s2.998-6.787 6.697-6.787 6.697 3.039 6.697 6.787c0 3.749-2.999 6.788-6.697 6.788"/></svg>